<?xml version="1.0" encoding="UTF-8"?><svg id="Layer_1" xmlns="http://www.w3.org/2000/svg" viewBox="0 0 130.71 34"><defs><style>.cls-1{fill:#fff;}.cls-2{fill:#e95420;}.cls-3{fill:none;}</style></defs><g><path d="M31.74,29.47c-1.3,0-2.33-.25-3.1-.76-.77-.51-1.33-1.19-1.67-2.05-.34-.86-.51-1.81-.51-2.87V14.68h1.42v8.92c0,1.59,.36,2.75,1.07,3.49,.71,.74,1.64,1.11,2.8,1.11s2.09-.37,2.8-1.11c.71-.74,1.07-1.9,1.07-3.49V14.68h1.42v9.11c0,1.06-.17,2.02-.51,2.87s-.9,1.54-1.67,2.05-1.81,.76-3.1,.76Z"/><path d="M44.46,29.41c-.63,0-1.19-.03-1.68-.09-.49-.06-.93-.14-1.29-.23-.37-.09-.69-.18-.95-.26V13.2l1.36-.25v6.06c.24-.18,.62-.37,1.15-.57,.53-.2,1.14-.3,1.84-.3,1.04,0,1.93,.24,2.65,.72,.72,.48,1.28,1.15,1.66,2,.38,.85,.57,1.82,.57,2.92,0,1.17-.22,2.18-.67,3.02-.45,.84-1.06,1.49-1.86,1.94-.79,.45-1.72,.68-2.78,.68Zm-.02-1.23c.78,0,1.46-.17,2.04-.51,.58-.34,1.03-.84,1.36-1.5,.33-.66,.49-1.46,.49-2.39,0-.6-.06-1.16-.19-1.69-.13-.53-.33-1-.61-1.41-.28-.41-.64-.73-1.1-.96s-1.01-.34-1.68-.34-1.22,.11-1.73,.33c-.52,.22-.89,.43-1.13,.63v7.56c.21,.06,.52,.12,.94,.19,.42,.07,.95,.1,1.61,.1Z"/><path d="M56.74,29.37c-1.07,0-1.92-.21-2.55-.62-.63-.41-1.07-.99-1.34-1.73-.26-.75-.4-1.61-.4-2.6v-6.06h1.36v5.62c0,1.02,.1,1.83,.3,2.43,.2,.61,.53,1.04,.99,1.32,.46,.27,1.07,.41,1.84,.41,.64,0,1.2-.04,1.67-.1s.77-.13,.9-.19v-9.48h1.36v10.42c-.4,.11-.95,.24-1.63,.38-.68,.14-1.52,.21-2.51,.21Z"/><path d="M64.26,29.16v-10.42c.4-.11,.95-.24,1.64-.38,.69-.14,1.52-.21,2.5-.21,1.1,0,1.96,.21,2.58,.63,.62,.42,1.06,1,1.32,1.74,.26,.75,.39,1.61,.39,2.6v6.04h-1.36v-5.6c0-1.02-.09-1.83-.28-2.44-.19-.61-.51-1.05-.97-1.33-.46-.27-1.09-.41-1.88-.41-.64,0-1.19,.04-1.66,.1-.47,.07-.77,.13-.91,.19v9.48h-1.36Z"/><path d="M79.39,29.39c-.89,0-1.59-.16-2.11-.47s-.88-.78-1.09-1.41-.31-1.42-.31-2.38V15.19l1.36-.25v3.43h4.3v1.15h-4.3v5.74c0,.82,.09,1.44,.27,1.86,.18,.42,.44,.7,.78,.83,.34,.14,.73,.21,1.18,.21,.57,0,1.03-.07,1.38-.21,.35-.14,.62-.26,.81-.35l.33,1.13c-.2,.12-.54,.27-1.02,.43-.49,.16-1.02,.24-1.59,.24Z"/><path d="M88.09,29.37c-1.07,0-1.92-.21-2.55-.62-.63-.41-1.07-.99-1.34-1.73-.26-.75-.4-1.61-.4-2.6v-6.06h1.36v5.62c0,1.02,.1,1.83,.3,2.43,.2,.61,.53,1.04,.99,1.32,.46,.27,1.07,.41,1.84,.41,.64,0,1.2-.04,1.67-.1s.77-.13,.9-.19v-9.48h1.36v10.42c-.4,.11-.95,.24-1.63,.38-.68,.14-1.52,.21-2.51,.21Z"/><path d="M100.67,29.16V14.96c.5-.14,1.09-.24,1.77-.3,.67-.06,1.3-.09,1.89-.09,2.03,0,3.55,.39,4.56,1.18s1.51,1.89,1.51,3.31c0,1.1-.25,1.98-.76,2.64-.51,.66-1.24,1.14-2.18,1.43-.95,.29-2.08,.44-3.41,.44h-1.96v5.6h-1.42Zm1.42-6.83h1.8c1.02,0,1.9-.09,2.65-.26,.75-.17,1.34-.5,1.75-.98,.42-.48,.63-1.17,.63-2.06s-.22-1.51-.66-1.97c-.44-.47-1-.79-1.69-.98-.69-.19-1.42-.28-2.18-.28-.52,0-.96,.02-1.34,.05s-.7,.07-.96,.09v6.39Z"/><path d="M112.84,29.16v-10.3c.35-.15,.83-.31,1.44-.47,.61-.16,1.36-.24,2.24-.24,.29,0,.58,.02,.87,.05,.29,.04,.54,.08,.75,.12s.37,.09,.47,.14l-.27,1.17c-.1-.06-.32-.12-.67-.18-.35-.06-.8-.09-1.36-.09-.58,0-1.05,.04-1.41,.12-.35,.08-.59,.15-.7,.21v9.46h-1.36Z"/><path d="M124.62,29.41c-.96,0-1.81-.23-2.55-.7-.74-.47-1.32-1.12-1.74-1.97s-.64-1.84-.64-2.97,.21-2.13,.64-2.98c.42-.84,1.01-1.5,1.74-1.97s1.59-.71,2.55-.71,1.81,.24,2.56,.71c.74,.47,1.33,1.13,1.74,1.97,.42,.84,.63,1.83,.63,2.98s-.21,2.12-.63,2.97-1,1.51-1.74,1.97c-.75,.47-1.6,.7-2.56,.7Zm0-1.23c.71,0,1.33-.18,1.85-.54,.52-.36,.93-.87,1.21-1.54,.29-.66,.43-1.44,.43-2.33s-.14-1.69-.43-2.35-.69-1.17-1.21-1.54c-.52-.36-1.14-.54-1.85-.54s-1.33,.18-1.85,.54c-.52,.36-.93,.87-1.21,1.54-.29,.66-.43,1.45-.43,2.35s.14,1.67,.43,2.33c.29,.66,.69,1.17,1.21,1.54,.52,.36,1.14,.54,1.85,.54Z"/></g><g><rect class="cls-2" x="0" width="21" height="32"/><rect class="cls-3" x="2.5" y="14" width="16" height="16"/><circle class="cls-1" cx="4.8" cy="21.15" r="2.17"/><circle class="cls-1" cx="13.86" cy="16.39" r="2.17"/><path class="cls-1" d="M9.7,26.75c-1.57-.34-2.87-1.34-3.61-2.75-.58,.26-1.23,.34-1.86,.23,.89,2.19,2.78,3.77,5.1,4.27,.51,.11,1.03,.16,1.54,.16-.4-.52-.62-1.16-.64-1.82-.18-.02-.36-.05-.53-.09Z"/><circle class="cls-1" cx="13.37" cy="26.76" r="2.17"/><path class="cls-1" d="M16.39,25.96c.68-.85,1.15-1.86,1.38-2.93,.4-1.87,.03-3.83-1.03-5.42-.25,.59-.68,1.09-1.22,1.43,.59,1.11,.77,2.38,.5,3.61-.13,.6-.36,1.17-.68,1.68,.51,.42,.87,.98,1.04,1.62Z"/><path class="cls-1" d="M4.63,18.04c.06,0,.11,0,.17,0,.22,0,.44,.02,.66,.07,.35,.08,.69,.21,.99,.4,.98-1.41,2.56-2.25,4.27-2.28,0-.16,.03-.33,.07-.49,.1-.47,.3-.9,.59-1.27-2.73-.22-5.39,1.19-6.74,3.58Z"/></g></svg>