<svg xmlns="http://www.w3.org/2000/svg" xmlns:v="https://svgstorm.com"
viewBox = "0 0 1385 1385"
width="1385"
height="1385">
<g fill="None" fill-opacity="0.0" stroke="#912518" stroke-opacity="1.00" stroke-width="0.3"><path d="
M 0.00 1385.00 
L 1385.00 1385.00
L 1385.00 0.00
L 0.00 0.00
L 0.00 1385.00
M 687.00 29.00 
C 721.82 32.37 764.56 33.13 798.00 40.00 C 831.44 46.86 864.57 54.90 895.22 65.78 C 925.88 76.65 953.29 87.63 981.08 101.92 C 1008.86 116.22 1033.21 130.80 1058.08 147.92 C 1082.95 165.04 1104.00 182.56 1126.25 202.75 C 1148.50 222.95 1167.04 241.87 1186.25 264.75 C 1205.45 287.63 1222.12 310.08 1238.30 335.70 C 1254.49 361.31 1268.56 385.81 1281.31 414.69 C 1294.05 443.58 1305.88 472.14 1314.93 504.07 C 1323.97 536.01 1331.16 571.59 1335.78 606.22 C 1340.40 640.85 1340.52 687.35 1339.07 723.07 C 1337.62 758.80 1331.47 798.10 1324.07 831.07 C 1316.68 864.04 1306.62 894.17 1295.08 924.08 C 1283.53 953.98 1270.38 980.34 1255.23 1007.23 C 1240.08 1034.12 1224.50 1057.27 1206.25 1081.25 C 1188.00 1105.23 1170.85 1124.72 1149.25 1146.25 C 1127.65 1167.78 1107.87 1185.74 1083.92 1203.92 C 1059.97 1222.10 1037.51 1237.54 1010.77 1252.77 C 984.03 1268.00 957.77 1281.32 927.98 1292.98 C 898.18 1304.63 867.86 1315.69 834.98 1322.98 C 802.10 1330.27 765.46 1337.45 729.93 1339.93 C 694.39 1342.40 645.95 1341.33 611.00 1338.00 C 576.04 1334.68 539.94 1327.84 507.78 1319.22 C 475.62 1310.61 445.13 1300.61 415.98 1288.03 C 386.82 1275.44 360.96 1261.86 334.77 1246.23 C 308.58 1230.60 286.42 1214.51 262.92 1196.08 C 239.42 1177.65 219.93 1158.87 198.75 1137.25 C 177.57 1115.63 160.88 1095.18 143.08 1070.92 C 125.28 1046.66 109.79 1023.11 95.23 995.77 C 80.67 968.44 67.90 941.53 56.69 911.31 C 45.49 881.08 36.79 849.53 29.67 816.33 C 22.55 783.12 18.07 741.74 17.00 706.00 C 15.93 670.26 17.91 626.31 23.00 592.00 C 28.09 557.69 36.26 523.41 45.93 491.93 C 55.59 460.44 67.32 432.21 80.77 403.77 C 94.22 375.33 108.35 351.19 124.92 325.92 C 141.49 300.65 158.62 278.81 178.25 256.25 C 197.88 233.68 216.61 214.76 239.23 195.23 C 261.85 175.70 283.03 157.83 308.25 141.25 C 333.46 124.66 358.56 110.32 386.70 96.69 C 414.83 83.07 442.52 71.34 473.68 61.68 C 504.84 52.01 538.79 41.93 573.00 38.00 C 607.21 34.07 650.73 25.49 687.00 29.00 Z"/>
</g>
<g fill="None" fill-opacity="0.0" stroke="#FEFEFE" stroke-opacity="1.00" stroke-width="0.3"><path d="
M 687.00 29.00 
C 650.73 25.49 607.21 34.07 573.00 38.00 C 538.79 41.93 504.84 52.01 473.68 61.68 C 442.52 71.34 414.83 83.07 386.70 96.69 C 358.56 110.32 333.46 124.66 308.25 141.25 C 283.03 157.83 261.85 175.70 239.23 195.23 C 216.61 214.76 197.88 233.68 178.25 256.25 C 158.62 278.81 141.49 300.65 124.92 325.92 C 108.35 351.19 94.22 375.33 80.77 403.77 C 67.32 432.21 55.59 460.44 45.93 491.93 C 36.26 523.41 28.09 557.69 23.00 592.00 C 17.91 626.31 15.93 670.26 17.00 706.00 C 18.07 741.74 22.55 783.12 29.67 816.33 C 36.79 849.53 45.49 881.08 56.69 911.31 C 67.90 941.53 80.67 968.44 95.23 995.77 C 109.79 1023.11 125.28 1046.66 143.08 1070.92 C 160.88 1095.18 177.57 1115.63 198.75 1137.25 C 219.93 1158.87 239.42 1177.65 262.92 1196.08 C 286.42 1214.51 308.58 1230.60 334.77 1246.23 C 360.96 1261.86 386.82 1275.44 415.98 1288.03 C 445.13 1300.61 475.62 1310.61 507.78 1319.22 C 539.94 1327.84 576.04 1334.68 611.00 1338.00 C 645.95 1341.33 694.39 1342.40 729.93 1339.93 C 765.46 1337.45 802.10 1330.27 834.98 1322.98 C 867.86 1315.69 898.18 1304.63 927.98 1292.98 C 957.77 1281.32 984.03 1268.00 1010.77 1252.77 C 1037.51 1237.54 1059.97 1222.10 1083.92 1203.92 C 1107.87 1185.74 1127.65 1167.78 1149.25 1146.25 C 1170.85 1124.72 1188.00 1105.23 1206.25 1081.25 C 1224.50 1057.27 1240.08 1034.12 1255.23 1007.23 C 1270.38 980.34 1283.53 953.98 1295.08 924.08 C 1306.62 894.17 1316.68 864.04 1324.07 831.07 C 1331.47 798.10 1337.62 758.80 1339.07 723.07 C 1340.52 687.35 1340.40 640.85 1335.78 606.22 C 1331.16 571.59 1323.97 536.01 1314.93 504.07 C 1305.88 472.14 1294.05 443.58 1281.31 414.69 C 1268.56 385.81 1254.49 361.31 1238.30 335.70 C 1222.12 310.08 1205.45 287.63 1186.25 264.75 C 1167.04 241.87 1148.50 222.95 1126.25 202.75 C 1104.00 182.56 1082.95 165.04 1058.08 147.92 C 1033.21 130.80 1008.86 116.22 981.08 101.92 C 953.29 87.63 925.88 76.65 895.22 65.78 C 864.57 54.90 831.44 46.86 798.00 40.00 C 764.56 33.13 721.82 32.37 687.00 29.00
M 453.00 217.00 
C 466.84 217.00 482.29 218.01 495.07 220.93 C 507.85 223.85 514.90 228.04 524.25 237.75 C 533.59 247.46 547.15 237.31 559.07 238.93 C 571.00 240.54 580.09 247.83 586.92 257.08 C 593.76 266.32 594.83 280.36 608.02 281.98 C 621.22 283.59 636.44 279.05 650.02 278.02 C 663.61 277.00 678.82 276.19 693.00 275.00 C 707.18 273.81 723.19 273.00 738.00 273.00
C 745.87 272.24 755.20 272.25 763.00 273.00
C 786.95 273.00 814.15 275.88 837.02 277.98 C 859.90 280.08 884.03 283.01 904.68 289.32 C 925.33 295.64 943.52 302.18 962.08 310.92 C 980.63 319.67 997.40 327.43 1014.08 337.92 C 1030.75 348.42 1044.51 358.65 1058.75 372.25 C 1072.99 385.84 1084.64 398.38 1095.92 414.08 C 1107.20 429.78 1116.39 446.22 1124.77 464.23 C 1133.15 482.24 1140.56 500.91 1147.93 520.07 C 1155.29 539.24 1162.09 557.90 1168.78 578.22 C 1175.46 598.55 1183.24 619.96 1183.00 643.00 C 1182.76 666.04 1193.44 686.57 1195.00 710.00 C 1196.55 733.43 1201.00 759.70 1201.00 784.00
C 1201.52 789.37 1202.00 795.95 1202.00 802.00
C 1202.00 814.94 1202.18 828.85 1201.00 841.00
C 1201.00 924.72 1174.92 1003.25 1128.00 1071.00
C 1124.51 1059.67 1130.30 1045.77 1129.00 1034.00 C 1127.70 1022.23 1128.72 1008.24 1124.00 999.00
C 1115.32 1016.21 1098.34 1030.43 1087.00 1045.00
C 1087.89 1036.99 1089.77 1029.20 1090.00 1021.00
C 1090.15 1017.04 1090.15 1012.96 1090.00 1009.00
C 1089.64 999.52 1087.23 977.61 1074.00 982.00 C 1060.77 986.39 1056.76 991.88 1044.92 995.92 C 1033.09 999.97 1024.56 1004.46 1012.93 1007.93 C 1001.29 1011.39 991.61 1015.03 979.78 1017.78 C 967.94 1020.52 955.24 1023.55 943.00 1025.00
C 953.11 1011.47 962.60 1005.33 970.30 989.30 C 978.00 973.27 981.39 957.85 982.00 938.00 C 982.61 918.15 958.46 913.23 941.00 916.00
C 929.00 916.00 917.00 916.00 905.00 916.00
C 880.74 916.00 851.85 917.06 828.99 921.99 C 806.14 926.92 800.06 950.54 795.22 970.22 C 790.38 989.91 795.51 1019.89 814.00 1032.00
C 798.21 1032.86 781.98 1031.09 766.78 1030.22 C 751.58 1029.35 737.17 1027.10 722.33 1025.67 C 707.49 1024.24 694.68 1020.79 679.93 1019.07 C 665.17 1017.35 652.62 1014.64 637.78 1012.22 C 622.94 1009.80 612.61 1006.19 596.78 1004.22 C 580.95 1002.25 589.87 1031.79 589.00 1042.00
C 581.82 1033.13 577.66 1032.43 571.25 1021.75 C 564.84 1011.08 552.73 1011.90 555.78 1026.22 C 558.83 1040.54 554.37 1049.93 557.00 1063.00 C 559.63 1076.07 558.22 1090.24 544.78 1089.78 C 531.34 1089.32 524.23 1094.34 511.93 1094.93 C 499.63 1095.52 489.92 1098.78 477.98 1099.98 C 466.03 1101.17 455.62 1102.90 443.78 1104.78 C 431.94 1106.65 422.38 1107.27 410.00 1109.00 C 397.62 1110.73 388.47 1111.27 374.93 1112.93 C 361.39 1114.58 365.30 1096.91 366.00 1086.00 C 366.70 1075.09 366.26 1060.13 368.00 1049.00 C 369.74 1037.87 370.15 1026.17 371.93 1014.93 C 373.71 1003.69 373.18 990.99 376.00 980.00 C 378.81 969.00 377.94 957.45 381.78 946.78 C 385.61 936.11 380.65 921.07 369.31 926.31 C 357.97 931.54 354.93 936.32 344.77 940.77 C 334.61 945.22 328.72 948.52 319.31 953.31 C 309.89 958.09 301.13 961.46 290.99 963.99 C 280.85 966.52 274.39 956.95 267.00 951.00
C 250.33 938.60 231.04 919.86 219.00 903.00
C 212.59 896.13 207.43 888.78 201.23 881.77 C 195.03 874.75 189.24 867.66 184.08 859.92 C 178.92 852.18 172.80 844.96 168.25 836.75 C 163.69 828.55 158.66 819.93 154.69 811.31 C 150.73 802.68 145.99 792.89 143.02 783.98 C 140.06 775.06 132.47 763.75 136.77 754.77 C 141.08 745.79 148.75 741.22 156.23 735.23 C 163.71 729.24 170.73 724.22 179.25 719.25 C 187.77 714.27 197.18 710.76 207.07 708.07 C 216.96 705.39 229.79 704.43 240.07 702.07 C 250.36 699.71 266.11 701.60 276.00 699.00 C 285.89 696.40 304.96 706.37 310.30 696.30 C 315.64 686.23 307.13 672.45 308.00 661.00 C 308.88 649.54 289.52 656.43 283.25 648.75 C 276.99 641.06 272.55 634.39 266.70 626.30 C 260.85 618.21 257.55 608.00 255.67 598.33 C 253.79 588.66 257.83 574.44 249.25 567.75 C 240.67 561.06 237.40 554.81 232.08 545.92 C 226.76 537.03 223.14 529.69 219.07 519.93 C 215.01 510.16 212.92 499.94 211.00 489.00 C 209.09 478.06 209.48 463.56 209.00 452.00 C 208.52 440.44 207.17 425.53 208.00 414.00 C 208.83 402.47 210.78 391.21 213.98 380.98 C 217.17 370.74 220.64 361.73 224.31 352.31 C 227.97 342.88 231.90 334.38 237.30 326.30 C 242.70 318.23 247.05 310.61 253.75 303.75 C 260.45 296.89 266.31 290.70 273.25 284.25 C 280.19 277.79 287.40 272.58 295.08 267.08 C 302.76 261.59 310.01 256.27 318.25 251.25 C 326.48 246.22 334.67 242.12 343.70 237.70 C 352.72 233.27 361.95 229.99 372.07 227.07 C 382.20 224.16 393.11 222.09 404.01 220.01 C 414.91 217.93 428.27 217.00 440.00 217.00
C 444.09 216.60 448.98 216.61 453.00 217.00 Z"/>
</g>
<g fill="None" fill-opacity="0.0" stroke="#A2A3A9" stroke-opacity="1.00" stroke-width="0.3"><path d="
M 440.00 217.00 
C 444.33 217.00 448.67 217.00 453.00 217.00
C 448.98 216.61 444.09 216.60 440.00 217.00 Z"/>
</g>
<g fill="None" fill-opacity="0.0" stroke="#912618" stroke-opacity="1.00" stroke-width="0.3"><path d="
M 219.00 903.00 
C 234.20 919.28 251.29 935.28 267.00 951.00
C 274.39 956.95 280.85 966.52 290.99 963.99 C 301.13 961.46 309.89 958.09 319.31 953.31 C 328.72 948.52 334.61 945.22 344.77 940.77 C 354.93 936.32 357.97 931.54 369.31 926.31 C 380.65 921.07 385.61 936.11 381.78 946.78 C 377.94 957.45 378.81 969.00 376.00 980.00 C 373.18 990.99 373.71 1003.69 371.93 1014.93 C 370.15 1026.17 369.74 1037.87 368.00 1049.00 C 366.26 1060.13 366.70 1075.09 366.00 1086.00 C 365.30 1096.91 361.39 1114.58 374.93 1112.93 C 388.47 1111.27 397.62 1110.73 410.00 1109.00 C 422.38 1107.27 431.94 1106.65 443.78 1104.78 C 455.62 1102.90 466.03 1101.17 477.98 1099.98 C 489.92 1098.78 499.63 1095.52 511.93 1094.93 C 524.23 1094.34 531.34 1089.32 544.78 1089.78 C 558.22 1090.24 559.63 1076.07 557.00 1063.00 C 554.37 1049.93 558.83 1040.54 555.78 1026.22 C 552.73 1011.90 564.84 1011.08 571.25 1021.75 C 577.66 1032.43 581.82 1033.13 589.00 1042.00
C 589.87 1031.79 580.95 1002.25 596.78 1004.22 C 612.61 1006.19 622.94 1009.80 637.78 1012.22 C 652.62 1014.64 665.17 1017.35 679.93 1019.07 C 694.68 1020.79 707.49 1024.24 722.33 1025.67 C 737.17 1027.10 751.58 1029.35 766.78 1030.22 C 781.98 1031.09 798.21 1032.86 814.00 1032.00
C 795.51 1019.89 790.38 989.91 795.22 970.22 C 800.06 950.54 806.14 926.92 828.99 921.99 C 851.85 917.06 880.74 916.00 905.00 916.00
C 916.31 914.90 929.76 914.91 941.00 916.00
C 958.46 913.23 982.61 918.15 982.00 938.00 C 981.39 957.85 978.00 973.27 970.30 989.30 C 962.60 1005.33 953.11 1011.47 943.00 1025.00
C 955.24 1023.55 967.94 1020.52 979.78 1017.78 C 991.61 1015.03 1001.29 1011.39 1012.93 1007.93 C 1024.56 1004.46 1033.09 999.97 1044.92 995.92 C 1056.76 991.88 1060.77 986.39 1074.00 982.00 C 1087.23 977.61 1089.64 999.52 1090.00 1009.00
C 1090.57 1012.98 1090.56 1017.09 1090.00 1021.00
C 1089.77 1029.20 1087.89 1036.99 1087.00 1045.00
C 1098.34 1030.43 1115.32 1016.21 1124.00 999.00
C 1128.72 1008.24 1127.70 1022.23 1129.00 1034.00 C 1130.30 1045.77 1124.51 1059.67 1128.00 1071.00
C 1174.92 1003.25 1201.00 924.72 1201.00 841.00
C 1201.00 828.00 1201.00 815.00 1201.00 802.00
C 1201.00 796.00 1201.00 790.00 1201.00 784.00
C 1201.00 759.70 1196.55 733.43 1195.00 710.00 C 1193.44 686.57 1182.76 666.04 1183.00 643.00 C 1183.24 619.96 1175.46 598.55 1168.78 578.22 C 1162.09 557.90 1155.29 539.24 1147.93 520.07 C 1140.56 500.91 1133.15 482.24 1124.77 464.23 C 1116.39 446.22 1107.20 429.78 1095.92 414.08 C 1084.64 398.38 1072.99 385.84 1058.75 372.25 C 1044.51 358.65 1030.75 348.42 1014.08 337.92 C 997.40 327.43 980.63 319.67 962.08 310.92 C 943.52 302.18 925.33 295.64 904.68 289.32 C 884.03 283.01 859.90 280.08 837.02 277.98 C 814.15 275.88 786.95 273.00 763.00 273.00
C 754.67 273.00 746.33 273.00 738.00 273.00
C 723.19 273.00 707.18 273.81 693.00 275.00 C 678.82 276.19 663.61 277.00 650.02 278.02 C 636.44 279.05 621.22 283.59 608.02 281.98 C 594.83 280.36 593.76 266.32 586.92 257.08 C 580.09 247.83 571.00 240.54 559.07 238.93 C 547.15 237.31 533.59 247.46 524.25 237.75 C 514.90 228.04 507.85 223.85 495.07 220.93 C 482.29 218.01 466.84 217.00 453.00 217.00
C 448.67 217.00 444.33 217.00 440.00 217.00
C 428.27 217.00 414.91 217.93 404.01 220.01 C 393.11 222.09 382.20 224.16 372.07 227.07 C 361.95 229.99 352.72 233.27 343.70 237.70 C 334.67 242.12 326.48 246.22 318.25 251.25 C 310.01 256.27 302.76 261.59 295.08 267.08 C 287.40 272.58 280.19 277.79 273.25 284.25 C 266.31 290.70 260.45 296.89 253.75 303.75 C 247.05 310.61 242.70 318.23 237.30 326.30 C 231.90 334.38 227.97 342.88 224.31 352.31 C 220.64 361.73 217.17 370.74 213.98 380.98 C 210.78 391.21 208.83 402.47 208.00 414.00 C 207.17 425.53 208.52 440.44 209.00 452.00 C 209.48 463.56 209.09 478.06 211.00 489.00 C 212.92 499.94 215.01 510.16 219.07 519.93 C 223.14 529.69 226.76 537.03 232.08 545.92 C 237.40 554.81 240.67 561.06 249.25 567.75 C 257.83 574.44 253.79 588.66 255.67 598.33 C 257.55 608.00 260.85 618.21 266.70 626.30 C 272.55 634.39 276.99 641.06 283.25 648.75 C 289.52 656.43 308.88 649.54 308.00 661.00 C 307.13 672.45 315.64 686.23 310.30 696.30 C 304.96 706.37 285.89 696.40 276.00 699.00 C 266.11 701.60 250.36 699.71 240.07 702.07 C 229.79 704.43 216.96 705.39 207.07 708.07 C 197.18 710.76 187.77 714.27 179.25 719.25 C 170.73 724.22 163.71 729.24 156.23 735.23 C 148.75 741.22 141.08 745.79 136.77 754.77 C 132.47 763.75 140.06 775.06 143.02 783.98 C 145.99 792.89 150.73 802.68 154.69 811.31 C 158.66 819.93 163.69 828.55 168.25 836.75 C 172.80 844.96 178.92 852.18 184.08 859.92 C 189.24 867.66 195.03 874.75 201.23 881.77 C 207.43 888.78 212.59 896.13 219.00 903.00
M 1012.00 905.00 
C 1007.34 901.53 1002.43 896.61 999.00 892.00
C 984.19 872.08 973.55 852.76 973.00 827.00 C 972.45 801.24 978.43 774.83 989.00 752.00
C 978.67 759.90 953.26 752.75 958.98 737.98 C 964.69 723.20 982.40 725.65 994.67 720.67 C 1006.95 715.70 1021.71 712.46 1034.67 708.67 C 1047.64 704.88 1062.27 698.92 1075.68 696.68 C 1089.09 694.43 1102.97 682.05 1116.75 690.25 C 1130.52 698.46 1117.43 716.93 1103.78 717.78 C 1090.13 718.62 1075.85 727.10 1063.00 730.00
C 1085.21 749.18 1091.06 772.39 1096.00 800.00 C 1100.93 827.61 1091.59 859.69 1077.25 882.25 C 1062.90 904.80 1036.64 923.63 1012.00 905.00
M 797.00 804.00 
C 797.62 809.09 797.48 815.00 797.00 820.00
C 797.00 855.27 781.27 904.99 742.33 915.33 C 703.38 925.66 667.33 889.43 659.01 851.99 C 650.68 814.55 652.61 763.68 682.00 734.00
C 670.95 734.14 639.77 729.90 647.32 712.32 C 654.87 694.75 677.53 707.09 692.07 707.93 C 706.62 708.77 728.08 714.28 743.02 715.98 C 757.97 717.67 779.95 722.30 794.01 723.99 C 808.07 725.68 833.81 727.72 827.22 746.22 C 820.64 764.72 793.67 749.29 781.00 750.00
C 787.50 767.56 796.54 784.59 797.00 804.00 Z"/>
</g>
<g fill="None" fill-opacity="0.0" stroke="#81838C" stroke-opacity="1.00" stroke-width="0.3"><path d="
M 738.00 273.00 
C 746.33 273.00 754.67 273.00 763.00 273.00
C 755.20 272.25 745.87 272.24 738.00 273.00 Z"/>
</g>
<g fill="None" fill-opacity="0.0" stroke="#FEFEFE" stroke-opacity="1.00" stroke-width="0.3"><path d="
M 999.00 892.00 
C 1002.66 896.20 1007.86 901.39 1012.00 905.00
C 1036.64 923.63 1062.90 904.80 1077.25 882.25 C 1091.59 859.69 1100.93 827.61 1096.00 800.00 C 1091.06 772.39 1085.21 749.18 1063.00 730.00
C 1075.85 727.10 1090.13 718.62 1103.78 717.78 C 1117.43 716.93 1130.52 698.46 1116.75 690.25 C 1102.97 682.05 1089.09 694.43 1075.68 696.68 C 1062.27 698.92 1047.64 704.88 1034.67 708.67 C 1021.71 712.46 1006.95 715.70 994.67 720.67 C 982.40 725.65 964.69 723.20 958.98 737.98 C 953.26 752.75 978.67 759.90 989.00 752.00
C 978.43 774.83 972.45 801.24 973.00 827.00 C 973.55 852.76 984.19 872.08 999.00 892.00 Z"/>
</g>
<g fill="None" fill-opacity="0.0" stroke="#FEFEFE" stroke-opacity="1.00" stroke-width="0.3"><path d="
M 797.00 820.00 
C 797.00 814.67 797.11 809.33 797.00 804.00
C 796.54 784.59 787.50 767.56 781.00 750.00
C 793.67 749.29 820.64 764.72 827.22 746.22 C 833.81 727.72 808.07 725.68 794.01 723.99 C 779.95 722.30 757.97 717.67 743.02 715.98 C 728.08 714.28 706.62 708.77 692.07 707.93 C 677.53 707.09 654.87 694.75 647.32 712.32 C 639.77 729.90 670.95 734.14 682.00 734.00
C 652.61 763.68 650.68 814.55 659.01 851.99 C 667.33 889.43 703.38 925.66 742.33 915.33 C 781.27 904.99 797.00 855.27 797.00 820.00 Z"/>
</g>
<g fill="None" fill-opacity="0.0" stroke="#CBCCCF" stroke-opacity="1.00" stroke-width="0.3"><path d="
M 1201.00 802.00 
C 1201.00 801.96 1202.00 802.00 1202.00 802.00
C 1202.00 795.95 1201.52 789.37 1201.00 784.00
C 1201.00 790.00 1201.00 796.00 1201.00 802.00 Z"/>
</g>
<g fill="None" fill-opacity="0.0" stroke="#80828B" stroke-opacity="1.00" stroke-width="0.3"><path d="
M 1201.00 841.00 
C 1202.18 828.85 1202.00 814.94 1202.00 802.00
C 1202.00 802.00 1201.00 801.96 1201.00 802.00
C 1201.00 815.00 1201.00 828.00 1201.00 841.00 Z"/>
</g>
<g fill="None" fill-opacity="0.0" stroke="#7B7D86" stroke-opacity="1.00" stroke-width="0.3"><path d="
M 797.00 820.00 
C 797.48 815.00 797.62 809.09 797.00 804.00
C 797.11 809.33 797.00 814.67 797.00 820.00 Z"/>
</g>
<g fill="None" fill-opacity="0.0" stroke="#95969D" stroke-opacity="1.00" stroke-width="0.3"><path d="
M 1012.00 905.00 
C 1007.86 901.39 1002.66 896.20 999.00 892.00
C 1002.43 896.61 1007.34 901.53 1012.00 905.00 Z"/>
</g>
<g fill="None" fill-opacity="0.0" stroke="#C1C1C5" stroke-opacity="1.00" stroke-width="0.3"><path d="
M 267.00 951.00 
C 251.29 935.28 234.20 919.28 219.00 903.00
C 231.04 919.86 250.33 938.60 267.00 951.00 Z"/>
</g>
<g fill="None" fill-opacity="0.0" stroke="#6F707A" stroke-opacity="1.00" stroke-width="0.3"><path d="
M 905.00 916.00 
C 917.00 916.00 929.00 916.00 941.00 916.00
C 929.76 914.91 916.31 914.90 905.00 916.00 Z"/>
</g>
<g fill="None" fill-opacity="0.0" stroke="#91929A" stroke-opacity="1.00" stroke-width="0.3"><path d="
M 1090.00 1021.00 
C 1090.56 1017.09 1090.57 1012.98 1090.00 1009.00
C 1090.15 1012.96 1090.15 1017.04 1090.00 1021.00 Z"/>
</g>
<g fill="#912518" fill-opacity="1.00" stroke="None">
<path d="
M 0.00 1385.00 
L 1385.00 1385.00
L 1385.00 0.00
L 0.00 0.00
L 0.00 1385.00
M 687.00 29.00 
C 721.82 32.37 764.56 33.13 798.00 40.00 C 831.44 46.86 864.57 54.90 895.22 65.78 C 925.88 76.65 953.29 87.63 981.08 101.92 C 1008.86 116.22 1033.21 130.80 1058.08 147.92 C 1082.95 165.04 1104.00 182.56 1126.25 202.75 C 1148.50 222.95 1167.04 241.87 1186.25 264.75 C 1205.45 287.63 1222.12 310.08 1238.30 335.70 C 1254.49 361.31 1268.56 385.81 1281.31 414.69 C 1294.05 443.58 1305.88 472.14 1314.93 504.07 C 1323.97 536.01 1331.16 571.59 1335.78 606.22 C 1340.40 640.85 1340.52 687.35 1339.07 723.07 C 1337.62 758.80 1331.47 798.10 1324.07 831.07 C 1316.68 864.04 1306.62 894.17 1295.08 924.08 C 1283.53 953.98 1270.38 980.34 1255.23 1007.23 C 1240.08 1034.12 1224.50 1057.27 1206.25 1081.25 C 1188.00 1105.23 1170.85 1124.72 1149.25 1146.25 C 1127.65 1167.78 1107.87 1185.74 1083.92 1203.92 C 1059.97 1222.10 1037.51 1237.54 1010.77 1252.77 C 984.03 1268.00 957.77 1281.32 927.98 1292.98 C 898.18 1304.63 867.86 1315.69 834.98 1322.98 C 802.10 1330.27 765.46 1337.45 729.93 1339.93 C 694.39 1342.40 645.95 1341.33 611.00 1338.00 C 576.04 1334.68 539.94 1327.84 507.78 1319.22 C 475.62 1310.61 445.13 1300.61 415.98 1288.03 C 386.82 1275.44 360.96 1261.86 334.77 1246.23 C 308.58 1230.60 286.42 1214.51 262.92 1196.08 C 239.42 1177.65 219.93 1158.87 198.75 1137.25 C 177.57 1115.63 160.88 1095.18 143.08 1070.92 C 125.28 1046.66 109.79 1023.11 95.23 995.77 C 80.67 968.44 67.90 941.53 56.69 911.31 C 45.49 881.08 36.79 849.53 29.67 816.33 C 22.55 783.12 18.07 741.74 17.00 706.00 C 15.93 670.26 17.91 626.31 23.00 592.00 C 28.09 557.69 36.26 523.41 45.93 491.93 C 55.59 460.44 67.32 432.21 80.77 403.77 C 94.22 375.33 108.35 351.19 124.92 325.92 C 141.49 300.65 158.62 278.81 178.25 256.25 C 197.88 233.68 216.61 214.76 239.23 195.23 C 261.85 175.70 283.03 157.83 308.25 141.25 C 333.46 124.66 358.56 110.32 386.70 96.69 C 414.83 83.07 442.52 71.34 473.68 61.68 C 504.84 52.01 538.79 41.93 573.00 38.00 C 607.21 34.07 650.73 25.49 687.00 29.00 Z"/>
</g>
<g fill="#FEFEFE" fill-opacity="1.00" stroke="None">
<path d="
M 687.00 29.00 
C 650.73 25.49 607.21 34.07 573.00 38.00 C 538.79 41.93 504.84 52.01 473.68 61.68 C 442.52 71.34 414.83 83.07 386.70 96.69 C 358.56 110.32 333.46 124.66 308.25 141.25 C 283.03 157.83 261.85 175.70 239.23 195.23 C 216.61 214.76 197.88 233.68 178.25 256.25 C 158.62 278.81 141.49 300.65 124.92 325.92 C 108.35 351.19 94.22 375.33 80.77 403.77 C 67.32 432.21 55.59 460.44 45.93 491.93 C 36.26 523.41 28.09 557.69 23.00 592.00 C 17.91 626.31 15.93 670.26 17.00 706.00 C 18.07 741.74 22.55 783.12 29.67 816.33 C 36.79 849.53 45.49 881.08 56.69 911.31 C 67.90 941.53 80.67 968.44 95.23 995.77 C 109.79 1023.11 125.28 1046.66 143.08 1070.92 C 160.88 1095.18 177.57 1115.63 198.75 1137.25 C 219.93 1158.87 239.42 1177.65 262.92 1196.08 C 286.42 1214.51 308.58 1230.60 334.77 1246.23 C 360.96 1261.86 386.82 1275.44 415.98 1288.03 C 445.13 1300.61 475.62 1310.61 507.78 1319.22 C 539.94 1327.84 576.04 1334.68 611.00 1338.00 C 645.95 1341.33 694.39 1342.40 729.93 1339.93 C 765.46 1337.45 802.10 1330.27 834.98 1322.98 C 867.86 1315.69 898.18 1304.63 927.98 1292.98 C 957.77 1281.32 984.03 1268.00 1010.77 1252.77 C 1037.51 1237.54 1059.97 1222.10 1083.92 1203.92 C 1107.87 1185.74 1127.65 1167.78 1149.25 1146.25 C 1170.85 1124.72 1188.00 1105.23 1206.25 1081.25 C 1224.50 1057.27 1240.08 1034.12 1255.23 1007.23 C 1270.38 980.34 1283.53 953.98 1295.08 924.08 C 1306.62 894.17 1316.68 864.04 1324.07 831.07 C 1331.47 798.10 1337.62 758.80 1339.07 723.07 C 1340.52 687.35 1340.40 640.85 1335.78 606.22 C 1331.16 571.59 1323.97 536.01 1314.93 504.07 C 1305.88 472.14 1294.05 443.58 1281.31 414.69 C 1268.56 385.81 1254.49 361.31 1238.30 335.70 C 1222.12 310.08 1205.45 287.63 1186.25 264.75 C 1167.04 241.87 1148.50 222.95 1126.25 202.75 C 1104.00 182.56 1082.95 165.04 1058.08 147.92 C 1033.21 130.80 1008.86 116.22 981.08 101.92 C 953.29 87.63 925.88 76.65 895.22 65.78 C 864.57 54.90 831.44 46.86 798.00 40.00 C 764.56 33.13 721.82 32.37 687.00 29.00
M 453.00 217.00 
C 466.84 217.00 482.29 218.01 495.07 220.93 C 507.85 223.85 514.90 228.04 524.25 237.75 C 533.59 247.46 547.15 237.31 559.07 238.93 C 571.00 240.54 580.09 247.83 586.92 257.08 C 593.76 266.32 594.83 280.36 608.02 281.98 C 621.22 283.59 636.44 279.05 650.02 278.02 C 663.61 277.00 678.82 276.19 693.00 275.00 C 707.18 273.81 723.19 273.00 738.00 273.00
C 745.87 272.24 755.20 272.25 763.00 273.00
C 786.95 273.00 814.15 275.88 837.02 277.98 C 859.90 280.08 884.03 283.01 904.68 289.32 C 925.33 295.64 943.52 302.18 962.08 310.92 C 980.63 319.67 997.40 327.43 1014.08 337.92 C 1030.75 348.42 1044.51 358.65 1058.75 372.25 C 1072.99 385.84 1084.64 398.38 1095.92 414.08 C 1107.20 429.78 1116.39 446.22 1124.77 464.23 C 1133.15 482.24 1140.56 500.91 1147.93 520.07 C 1155.29 539.24 1162.09 557.90 1168.78 578.22 C 1175.46 598.55 1183.24 619.96 1183.00 643.00 C 1182.76 666.04 1193.44 686.57 1195.00 710.00 C 1196.55 733.43 1201.00 759.70 1201.00 784.00
C 1201.52 789.37 1202.00 795.95 1202.00 802.00
C 1202.00 814.94 1202.18 828.85 1201.00 841.00
C 1201.00 924.72 1174.92 1003.25 1128.00 1071.00
C 1124.51 1059.67 1130.30 1045.77 1129.00 1034.00 C 1127.70 1022.23 1128.72 1008.24 1124.00 999.00
C 1115.32 1016.21 1098.34 1030.43 1087.00 1045.00
C 1087.89 1036.99 1089.77 1029.20 1090.00 1021.00
C 1090.15 1017.04 1090.15 1012.96 1090.00 1009.00
C 1089.64 999.52 1087.23 977.61 1074.00 982.00 C 1060.77 986.39 1056.76 991.88 1044.92 995.92 C 1033.09 999.97 1024.56 1004.46 1012.93 1007.93 C 1001.29 1011.39 991.61 1015.03 979.78 1017.78 C 967.94 1020.52 955.24 1023.55 943.00 1025.00
C 953.11 1011.47 962.60 1005.33 970.30 989.30 C 978.00 973.27 981.39 957.85 982.00 938.00 C 982.61 918.15 958.46 913.23 941.00 916.00
C 929.00 916.00 917.00 916.00 905.00 916.00
C 880.74 916.00 851.85 917.06 828.99 921.99 C 806.14 926.92 800.06 950.54 795.22 970.22 C 790.38 989.91 795.51 1019.89 814.00 1032.00
C 798.21 1032.86 781.98 1031.09 766.78 1030.22 C 751.58 1029.35 737.17 1027.10 722.33 1025.67 C 707.49 1024.24 694.68 1020.79 679.93 1019.07 C 665.17 1017.35 652.62 1014.64 637.78 1012.22 C 622.94 1009.80 612.61 1006.19 596.78 1004.22 C 580.95 1002.25 589.87 1031.79 589.00 1042.00
C 581.82 1033.13 577.66 1032.43 571.25 1021.75 C 564.84 1011.08 552.73 1011.90 555.78 1026.22 C 558.83 1040.54 554.37 1049.93 557.00 1063.00 C 559.63 1076.07 558.22 1090.24 544.78 1089.78 C 531.34 1089.32 524.23 1094.34 511.93 1094.93 C 499.63 1095.52 489.92 1098.78 477.98 1099.98 C 466.03 1101.17 455.62 1102.90 443.78 1104.78 C 431.94 1106.65 422.38 1107.27 410.00 1109.00 C 397.62 1110.73 388.47 1111.27 374.93 1112.93 C 361.39 1114.58 365.30 1096.91 366.00 1086.00 C 366.70 1075.09 366.26 1060.13 368.00 1049.00 C 369.74 1037.87 370.15 1026.17 371.93 1014.93 C 373.71 1003.69 373.18 990.99 376.00 980.00 C 378.81 969.00 377.94 957.45 381.78 946.78 C 385.61 936.11 380.65 921.07 369.31 926.31 C 357.97 931.54 354.93 936.32 344.77 940.77 C 334.61 945.22 328.72 948.52 319.31 953.31 C 309.89 958.09 301.13 961.46 290.99 963.99 C 280.85 966.52 274.39 956.95 267.00 951.00
C 250.33 938.60 231.04 919.86 219.00 903.00
C 212.59 896.13 207.43 888.78 201.23 881.77 C 195.03 874.75 189.24 867.66 184.08 859.92 C 178.92 852.18 172.80 844.96 168.25 836.75 C 163.69 828.55 158.66 819.93 154.69 811.31 C 150.73 802.68 145.99 792.89 143.02 783.98 C 140.06 775.06 132.47 763.75 136.77 754.77 C 141.08 745.79 148.75 741.22 156.23 735.23 C 163.71 729.24 170.73 724.22 179.25 719.25 C 187.77 714.27 197.18 710.76 207.07 708.07 C 216.96 705.39 229.79 704.43 240.07 702.07 C 250.36 699.71 266.11 701.60 276.00 699.00 C 285.89 696.40 304.96 706.37 310.30 696.30 C 315.64 686.23 307.13 672.45 308.00 661.00 C 308.88 649.54 289.52 656.43 283.25 648.75 C 276.99 641.06 272.55 634.39 266.70 626.30 C 260.85 618.21 257.55 608.00 255.67 598.33 C 253.79 588.66 257.83 574.44 249.25 567.75 C 240.67 561.06 237.40 554.81 232.08 545.92 C 226.76 537.03 223.14 529.69 219.07 519.93 C 215.01 510.16 212.92 499.94 211.00 489.00 C 209.09 478.06 209.48 463.56 209.00 452.00 C 208.52 440.44 207.17 425.53 208.00 414.00 C 208.83 402.47 210.78 391.21 213.98 380.98 C 217.17 370.74 220.64 361.73 224.31 352.31 C 227.97 342.88 231.90 334.38 237.30 326.30 C 242.70 318.23 247.05 310.61 253.75 303.75 C 260.45 296.89 266.31 290.70 273.25 284.25 C 280.19 277.79 287.40 272.58 295.08 267.08 C 302.76 261.59 310.01 256.27 318.25 251.25 C 326.48 246.22 334.67 242.12 343.70 237.70 C 352.72 233.27 361.95 229.99 372.07 227.07 C 382.20 224.16 393.11 222.09 404.01 220.01 C 414.91 217.93 428.27 217.00 440.00 217.00
C 444.09 216.60 448.98 216.61 453.00 217.00 Z"/>
</g>
<g fill="#A2A3A9" fill-opacity="1.00" stroke="None">
<path d="
M 440.00 217.00 
C 444.33 217.00 448.67 217.00 453.00 217.00
C 448.98 216.61 444.09 216.60 440.00 217.00 Z"/>
</g>
<g fill="#912618" fill-opacity="1.00" stroke="None">
<path d="
M 219.00 903.00 
C 234.20 919.28 251.29 935.28 267.00 951.00
C 274.39 956.95 280.85 966.52 290.99 963.99 C 301.13 961.46 309.89 958.09 319.31 953.31 C 328.72 948.52 334.61 945.22 344.77 940.77 C 354.93 936.32 357.97 931.54 369.31 926.31 C 380.65 921.07 385.61 936.11 381.78 946.78 C 377.94 957.45 378.81 969.00 376.00 980.00 C 373.18 990.99 373.71 1003.69 371.93 1014.93 C 370.15 1026.17 369.74 1037.87 368.00 1049.00 C 366.26 1060.13 366.70 1075.09 366.00 1086.00 C 365.30 1096.91 361.39 1114.58 374.93 1112.93 C 388.47 1111.27 397.62 1110.73 410.00 1109.00 C 422.38 1107.27 431.94 1106.65 443.78 1104.78 C 455.62 1102.90 466.03 1101.17 477.98 1099.98 C 489.92 1098.78 499.63 1095.52 511.93 1094.93 C 524.23 1094.34 531.34 1089.32 544.78 1089.78 C 558.22 1090.24 559.63 1076.07 557.00 1063.00 C 554.37 1049.93 558.83 1040.54 555.78 1026.22 C 552.73 1011.90 564.84 1011.08 571.25 1021.75 C 577.66 1032.43 581.82 1033.13 589.00 1042.00
C 589.87 1031.79 580.95 1002.25 596.78 1004.22 C 612.61 1006.19 622.94 1009.80 637.78 1012.22 C 652.62 1014.64 665.17 1017.35 679.93 1019.07 C 694.68 1020.79 707.49 1024.24 722.33 1025.67 C 737.17 1027.10 751.58 1029.35 766.78 1030.22 C 781.98 1031.09 798.21 1032.86 814.00 1032.00
C 795.51 1019.89 790.38 989.91 795.22 970.22 C 800.06 950.54 806.14 926.92 828.99 921.99 C 851.85 917.06 880.74 916.00 905.00 916.00
C 916.31 914.90 929.76 914.91 941.00 916.00
C 958.46 913.23 982.61 918.15 982.00 938.00 C 981.39 957.85 978.00 973.27 970.30 989.30 C 962.60 1005.33 953.11 1011.47 943.00 1025.00
C 955.24 1023.55 967.94 1020.52 979.78 1017.78 C 991.61 1015.03 1001.29 1011.39 1012.93 1007.93 C 1024.56 1004.46 1033.09 999.97 1044.92 995.92 C 1056.76 991.88 1060.77 986.39 1074.00 982.00 C 1087.23 977.61 1089.64 999.52 1090.00 1009.00
C 1090.57 1012.98 1090.56 1017.09 1090.00 1021.00
C 1089.77 1029.20 1087.89 1036.99 1087.00 1045.00
C 1098.34 1030.43 1115.32 1016.21 1124.00 999.00
C 1128.72 1008.24 1127.70 1022.23 1129.00 1034.00 C 1130.30 1045.77 1124.51 1059.67 1128.00 1071.00
C 1174.92 1003.25 1201.00 924.72 1201.00 841.00
C 1201.00 828.00 1201.00 815.00 1201.00 802.00
C 1201.00 796.00 1201.00 790.00 1201.00 784.00
C 1201.00 759.70 1196.55 733.43 1195.00 710.00 C 1193.44 686.57 1182.76 666.04 1183.00 643.00 C 1183.24 619.96 1175.46 598.55 1168.78 578.22 C 1162.09 557.90 1155.29 539.24 1147.93 520.07 C 1140.56 500.91 1133.15 482.24 1124.77 464.23 C 1116.39 446.22 1107.20 429.78 1095.92 414.08 C 1084.64 398.38 1072.99 385.84 1058.75 372.25 C 1044.51 358.65 1030.75 348.42 1014.08 337.92 C 997.40 327.43 980.63 319.67 962.08 310.92 C 943.52 302.18 925.33 295.64 904.68 289.32 C 884.03 283.01 859.90 280.08 837.02 277.98 C 814.15 275.88 786.95 273.00 763.00 273.00
C 754.67 273.00 746.33 273.00 738.00 273.00
C 723.19 273.00 707.18 273.81 693.00 275.00 C 678.82 276.19 663.61 277.00 650.02 278.02 C 636.44 279.05 621.22 283.59 608.02 281.98 C 594.83 280.36 593.76 266.32 586.92 257.08 C 580.09 247.83 571.00 240.54 559.07 238.93 C 547.15 237.31 533.59 247.46 524.25 237.75 C 514.90 228.04 507.85 223.85 495.07 220.93 C 482.29 218.01 466.84 217.00 453.00 217.00
C 448.67 217.00 444.33 217.00 440.00 217.00
C 428.27 217.00 414.91 217.93 404.01 220.01 C 393.11 222.09 382.20 224.16 372.07 227.07 C 361.95 229.99 352.72 233.27 343.70 237.70 C 334.67 242.12 326.48 246.22 318.25 251.25 C 310.01 256.27 302.76 261.59 295.08 267.08 C 287.40 272.58 280.19 277.79 273.25 284.25 C 266.31 290.70 260.45 296.89 253.75 303.75 C 247.05 310.61 242.70 318.23 237.30 326.30 C 231.90 334.38 227.97 342.88 224.31 352.31 C 220.64 361.73 217.17 370.74 213.98 380.98 C 210.78 391.21 208.83 402.47 208.00 414.00 C 207.17 425.53 208.52 440.44 209.00 452.00 C 209.48 463.56 209.09 478.06 211.00 489.00 C 212.92 499.94 215.01 510.16 219.07 519.93 C 223.14 529.69 226.76 537.03 232.08 545.92 C 237.40 554.81 240.67 561.06 249.25 567.75 C 257.83 574.44 253.79 588.66 255.67 598.33 C 257.55 608.00 260.85 618.21 266.70 626.30 C 272.55 634.39 276.99 641.06 283.25 648.75 C 289.52 656.43 308.88 649.54 308.00 661.00 C 307.13 672.45 315.64 686.23 310.30 696.30 C 304.96 706.37 285.89 696.40 276.00 699.00 C 266.11 701.60 250.36 699.71 240.07 702.07 C 229.79 704.43 216.96 705.39 207.07 708.07 C 197.18 710.76 187.77 714.27 179.25 719.25 C 170.73 724.22 163.71 729.24 156.23 735.23 C 148.75 741.22 141.08 745.79 136.77 754.77 C 132.47 763.75 140.06 775.06 143.02 783.98 C 145.99 792.89 150.73 802.68 154.69 811.31 C 158.66 819.93 163.69 828.55 168.25 836.75 C 172.80 844.96 178.92 852.18 184.08 859.92 C 189.24 867.66 195.03 874.75 201.23 881.77 C 207.43 888.78 212.59 896.13 219.00 903.00
M 1012.00 905.00 
C 1007.34 901.53 1002.43 896.61 999.00 892.00
C 984.19 872.08 973.55 852.76 973.00 827.00 C 972.45 801.24 978.43 774.83 989.00 752.00
C 978.67 759.90 953.26 752.75 958.98 737.98 C 964.69 723.20 982.40 725.65 994.67 720.67 C 1006.95 715.70 1021.71 712.46 1034.67 708.67 C 1047.64 704.88 1062.27 698.92 1075.68 696.68 C 1089.09 694.43 1102.97 682.05 1116.75 690.25 C 1130.52 698.46 1117.43 716.93 1103.78 717.78 C 1090.13 718.62 1075.85 727.10 1063.00 730.00
C 1085.21 749.18 1091.06 772.39 1096.00 800.00 C 1100.93 827.61 1091.59 859.69 1077.25 882.25 C 1062.90 904.80 1036.64 923.63 1012.00 905.00
M 797.00 804.00 
C 797.62 809.09 797.48 815.00 797.00 820.00
C 797.00 855.27 781.27 904.99 742.33 915.33 C 703.38 925.66 667.33 889.43 659.01 851.99 C 650.68 814.55 652.61 763.68 682.00 734.00
C 670.95 734.14 639.77 729.90 647.32 712.32 C 654.87 694.75 677.53 707.09 692.07 707.93 C 706.62 708.77 728.08 714.28 743.02 715.98 C 757.97 717.67 779.95 722.30 794.01 723.99 C 808.07 725.68 833.81 727.72 827.22 746.22 C 820.64 764.72 793.67 749.29 781.00 750.00
C 787.50 767.56 796.54 784.59 797.00 804.00 Z"/>
</g>
<g fill="#81838C" fill-opacity="1.00" stroke="None">
<path d="
M 738.00 273.00 
C 746.33 273.00 754.67 273.00 763.00 273.00
C 755.20 272.25 745.87 272.24 738.00 273.00 Z"/>
</g>
<g fill="#FEFEFE" fill-opacity="1.00" stroke="None">
<path d="
M 999.00 892.00 
C 1002.66 896.20 1007.86 901.39 1012.00 905.00
C 1036.64 923.63 1062.90 904.80 1077.25 882.25 C 1091.59 859.69 1100.93 827.61 1096.00 800.00 C 1091.06 772.39 1085.21 749.18 1063.00 730.00
C 1075.85 727.10 1090.13 718.62 1103.78 717.78 C 1117.43 716.93 1130.52 698.46 1116.75 690.25 C 1102.97 682.05 1089.09 694.43 1075.68 696.68 C 1062.27 698.92 1047.64 704.88 1034.67 708.67 C 1021.71 712.46 1006.95 715.70 994.67 720.67 C 982.40 725.65 964.69 723.20 958.98 737.98 C 953.26 752.75 978.67 759.90 989.00 752.00
C 978.43 774.83 972.45 801.24 973.00 827.00 C 973.55 852.76 984.19 872.08 999.00 892.00 Z"/>
</g>
<g fill="#FEFEFE" fill-opacity="1.00" stroke="None">
<path d="
M 797.00 820.00 
C 797.00 814.67 797.11 809.33 797.00 804.00
C 796.54 784.59 787.50 767.56 781.00 750.00
C 793.67 749.29 820.64 764.72 827.22 746.22 C 833.81 727.72 808.07 725.68 794.01 723.99 C 779.95 722.30 757.97 717.67 743.02 715.98 C 728.08 714.28 706.62 708.77 692.07 707.93 C 677.53 707.09 654.87 694.75 647.32 712.32 C 639.77 729.90 670.95 734.14 682.00 734.00
C 652.61 763.68 650.68 814.55 659.01 851.99 C 667.33 889.43 703.38 925.66 742.33 915.33 C 781.27 904.99 797.00 855.27 797.00 820.00 Z"/>
</g>
<g fill="#CBCCCF" fill-opacity="1.00" stroke="None">
<path d="
M 1201.00 802.00 
C 1201.00 801.96 1202.00 802.00 1202.00 802.00
C 1202.00 795.95 1201.52 789.37 1201.00 784.00
C 1201.00 790.00 1201.00 796.00 1201.00 802.00 Z"/>
</g>
<g fill="#80828B" fill-opacity="1.00" stroke="None">
<path d="
M 1201.00 841.00 
C 1202.18 828.85 1202.00 814.94 1202.00 802.00
C 1202.00 802.00 1201.00 801.96 1201.00 802.00
C 1201.00 815.00 1201.00 828.00 1201.00 841.00 Z"/>
</g>
<g fill="#7B7D86" fill-opacity="1.00" stroke="None">
<path d="
M 797.00 820.00 
C 797.48 815.00 797.62 809.09 797.00 804.00
C 797.11 809.33 797.00 814.67 797.00 820.00 Z"/>
</g>
<g fill="#95969D" fill-opacity="1.00" stroke="None">
<path d="
M 1012.00 905.00 
C 1007.86 901.39 1002.66 896.20 999.00 892.00
C 1002.43 896.61 1007.34 901.53 1012.00 905.00 Z"/>
</g>
<g fill="#C1C1C5" fill-opacity="1.00" stroke="None">
<path d="
M 267.00 951.00 
C 251.29 935.28 234.20 919.28 219.00 903.00
C 231.04 919.86 250.33 938.60 267.00 951.00 Z"/>
</g>
<g fill="#6F707A" fill-opacity="1.00" stroke="None">
<path d="
M 905.00 916.00 
C 917.00 916.00 929.00 916.00 941.00 916.00
C 929.76 914.91 916.31 914.90 905.00 916.00 Z"/>
</g>
<g fill="#91929A" fill-opacity="1.00" stroke="None">
<path d="
M 1090.00 1021.00 
C 1090.56 1017.09 1090.57 1012.98 1090.00 1009.00
C 1090.15 1012.96 1090.15 1017.04 1090.00 1021.00 Z"/>
</g>
</svg>