<?xml version="1.0" encoding="UTF-8"?>
<svg version="1.1" xmlns="http://www.w3.org/2000/svg" width="512" height="512">
<path d="M0 0 C0.6899707 0.27956543 1.37994141 0.55913086 2.09082031 0.84716797 C22.24088751 9.1008899 41.21950828 19.84008204 58.18359375 33.55078125 C60.47395225 35.37814255 62.86543931 37.0308254 65.296875 38.6640625 C67.73465165 40.57626345 69.81565947 42.80324844 72 45 C73.14535985 46.06085506 74.29679607 47.11517449 75.453125 48.1640625 C82.9833081 55.01228537 89.76091229 61.92728728 96 70 C97.53804932 71.85716839 99.07975362 73.71131558 100.625 75.5625 C104.68877642 80.55113588 108.47359515 85.6175926 112 91 C112.39413086 91.60102539 112.78826172 92.20205078 113.19433594 92.82128906 C136.22262401 128.29074406 151.9742639 170.96203963 152.203125 213.609375 C152.21013931 214.49040894 152.21715363 215.37144287 152.22438049 216.2791748 C152.24176964 219.10283593 152.24823181 221.92628731 152.25 224.75 C152.25067474 225.7153064 152.25134949 226.68061279 152.25204468 227.6751709 C152.23646619 241.68765332 151.77366498 255.22807853 149 269 C148.66773271 270.83329057 148.3357113 272.66662571 148.00390625 274.5 C144.20534533 294.41778989 137.63968864 313.69144903 128.53125 331.8046875 C127.3442389 334.28166475 126.48440313 336.32232717 126 339 C126.58265625 339.26941406 127.1653125 339.53882813 127.765625 339.81640625 C139.82183367 346.20282448 149.56437061 361.41387344 153.67285156 374.07324219 C154.97994241 378.67395338 156.01018423 383.32232224 157 388 C157.1750708 388.64485352 157.3501416 389.28970703 157.53051758 389.95410156 C162.01406204 409.49237644 154.78617795 428.96078596 146 446 C145.34 446 144.68 446 144 446 C143.77570313 446.70253906 143.55140625 447.40507812 143.3203125 448.12890625 C141.71451194 451.62080984 139.47870146 454.16949798 136.875 456.9375 C136.38652588 457.46311523 135.89805176 457.98873047 135.39477539 458.53027344 C131.65476702 462.47768617 127.75363927 466.2836347 123 469 C122.34 469 121.68 469 121 469 C121 469.66 121 470.32 121 471 C98.06614379 482.82571809 76.05014997 486.97050226 51 479 C49.80503906 478.64228516 49.80503906 478.64228516 48.5859375 478.27734375 C44.68463718 476.97950082 41.39473931 475.04546414 37.9375 472.875 C33.81431574 470.30039963 30.83725779 469.21031556 26 469 C26.33 468.01 26.66 467.02 27 466 C26.401875 465.731875 25.80375 465.46375 25.1875 465.1875 C23.00152146 464.00082594 21.58667406 462.90400887 20 461 C20 460.34 20 459.68 20 459 C19.01 458.67 18.02 458.34 17 458 C17 457.34 17 456.68 17 456 C16.13375 455.6596875 16.13375 455.6596875 15.25 455.3125 C12.4336339 453.66961977 10.91922886 451.60466773 9 449 C4.36952322 450.49120594 -0.21318578 452.05417899 -4.7421875 453.83203125 C-62.55960308 476.32505689 -131.9318169 476.01484605 -189 451 C-226.70329202 434.18477702 -261.82351951 410.26067148 -287 377 C-287.62285889 376.19175781 -287.62285889 376.19175781 -288.25830078 375.3671875 C-295.94508618 365.3684816 -302.65797194 354.89457306 -309 344 C-309.3619043 343.38753418 -309.72380859 342.77506836 -310.09667969 342.14404297 C-330.46735929 307.37743334 -339.25729267 266.46614453 -339.1875 226.5 C-339.18656342 225.80101593 -339.18562683 225.10203186 -339.18466187 224.38186646 C-339.10602258 197.14981856 -334.44450341 171.88185461 -326 146 C-325.78875488 145.34708984 -325.57750977 144.69417969 -325.35986328 144.02148438 C-312.20825387 103.87781279 -284.80130543 65.29377584 -251.65625 39.1015625 C-249.90059344 37.71252834 -248.17034457 36.29069582 -246.46875 34.8359375 C-231.86433624 22.38699444 -215.13919382 13.44715138 -198 5 C-197.27989746 4.64421875 -196.55979492 4.2884375 -195.81787109 3.921875 C-183.40385409 -2.10752565 -170.21008712 -6.10699836 -157 -10 C-156.2467041 -10.22316895 -155.4934082 -10.44633789 -154.71728516 -10.67626953 C-104.89147163 -24.9934756 -47.60974441 -19.43759787 0 0 Z " fill="#912618" transform="translate(350,25)"/>
<path d="M0 0 C0.6899707 0.27956543 1.37994141 0.55913086 2.09082031 0.84716797 C22.24088751 9.1008899 41.21950828 19.84008204 58.18359375 33.55078125 C60.47395225 35.37814255 62.86543931 37.0308254 65.296875 38.6640625 C67.73465165 40.57626345 69.81565947 42.80324844 72 45 C73.14535985 46.06085506 74.29679607 47.11517449 75.453125 48.1640625 C82.9833081 55.01228537 89.76091229 61.92728728 96 70 C97.53804932 71.85716839 99.07975362 73.71131558 100.625 75.5625 C104.68877642 80.55113588 108.47359515 85.6175926 112 91 C112.39413086 91.60102539 112.78826172 92.20205078 113.19433594 92.82128906 C136.22262401 128.29074406 151.9742639 170.96203963 152.203125 213.609375 C152.21013931 214.49040894 152.21715363 215.37144287 152.22438049 216.2791748 C152.24176964 219.10283593 152.24823181 221.92628731 152.25 224.75 C152.25067474 225.7153064 152.25134949 226.68061279 152.25204468 227.6751709 C152.23646619 241.68765332 151.77366498 255.22807853 149 269 C148.66773271 270.83329057 148.3357113 272.66662571 148.00390625 274.5 C143.7680141 296.71519614 135.71722242 317.64666887 126 338 C123.48897139 336.74913256 120.99028634 335.47994681 118.49609375 334.1953125 C110.81539686 330.26406823 103.23721787 326.65266338 95 324 C94.84209293 318.00639668 95.39902854 312.46005186 96.4375 306.5625 C96.57220703 305.74845703 96.70691406 304.93441406 96.84570312 304.09570312 C97.86480602 298.13519398 97.86480602 298.13519398 99 297 C99.12221525 295.55815707 99.17772758 294.11056856 99.20532227 292.66381836 C99.22526749 291.7429393 99.24521271 290.82206024 99.26576233 289.87327576 C99.28247482 288.87224319 99.29918732 287.87121063 99.31640625 286.83984375 C99.3475779 285.31043907 99.3475779 285.31043907 99.37937927 283.75013733 C99.44498852 280.47932952 99.50381234 277.20843863 99.5625 273.9375 C99.60567442 271.72590272 99.64928834 269.51431397 99.69335938 267.30273438 C99.8006814 261.86857849 99.90242623 256.43433918 100 251 C99.34 251 98.68 251 98 251 C97.91959473 250.17798096 97.83918945 249.35596191 97.75634766 248.5090332 C97.38687096 244.77605356 97.0060591 241.04431436 96.625 237.3125 C96.43550781 235.37213867 96.43550781 235.37213867 96.2421875 233.39257812 C96.11328125 232.14541016 95.984375 230.89824219 95.8515625 229.61328125 C95.73635254 228.46641846 95.62114258 227.31955566 95.50244141 226.13793945 C95.02224239 223.13891226 94.21887882 220.76627767 93 218 C91.96625212 213.95837925 91.8394847 210.03503824 91.6875 205.875 C91.38381523 200.01445417 90.27885231 195.10581871 88.0390625 189.68359375 C86.91346438 186.77650388 86.19700771 183.91196216 85.5 180.875 C84.42433723 176.36303078 83.00659061 172.36218698 81.01953125 168.1796875 C79.99180236 165.98247402 79.11576672 163.76548647 78.25 161.5 C76.05566221 155.93110291 73.48473885 150.55043032 70.90527344 145.15234375 C70.57430664 144.45882812 70.24333984 143.7653125 69.90234375 143.05078125 C69.57669434 142.36935059 69.25104492 141.68791992 68.91552734 140.98583984 C68.06443104 139.13975522 67.2960736 137.25613968 66.53515625 135.37109375 C56.7206229 113.81907776 34.7438748 99.5100108 14 90 C12.83597656 89.45472656 11.67195313 88.90945312 10.47265625 88.34765625 C-13.9495668 77.35345962 -40.11607708 74.7977381 -66.6875 74.8125 C-67.92628906 74.81185547 -69.16507812 74.81121094 -70.44140625 74.81054688 C-80.24581464 74.86523678 -89.96510374 75.4165183 -99.72924805 76.28833008 C-107.17265559 76.943574 -114.5287375 77.10924673 -122 77 C-122.66 75.35 -123.32 73.7 -124 72 C-124.66 72 -125.32 72 -126 72 C-126.20625 71.2575 -126.4125 70.515 -126.625 69.75 C-127.99522713 67.00954574 -129.22558975 65.33091038 -131.8359375 63.69140625 C-134.90796951 62.70990866 -137.66329028 62.98401488 -140.875 63.125 C-145.81724413 63.29182681 -148.68211637 63.20815712 -152.625 60.125 C-153.19476563 59.59132813 -153.76453125 59.05765625 -154.3515625 58.5078125 C-162.60850522 50.95525352 -178.57669504 53.51860519 -188.88720703 53.81201172 C-195.26431119 54.19713879 -200.9883999 55.86303514 -207 58 C-208.55654297 58.45052734 -208.55654297 58.45052734 -210.14453125 58.91015625 C-227.55304154 64.07237175 -247.81843789 78.35681601 -256.91796875 94.61328125 C-266.67687167 116.13923679 -270.04801615 141.12154867 -262.3125 164.0625 C-259.51161001 170.62938065 -256.12708616 178.15112435 -250.8046875 183 C-248.44059082 185.6199513 -248.59719636 187.08241137 -248.625 190.5625 C-248.23467066 198.34052612 -245.13586559 204.39091526 -240.05859375 210.234375 C-237.91219214 212.07531149 -236.58444566 212.61127137 -233.875 213.25 C-230.29359748 214.47486629 -230.29359748 214.47486629 -229.0390625 216.71875 C-227.88330112 221.07379288 -227.64111886 225.51398572 -228 230 C-230.59460542 232.59460542 -231.6758034 232.25126666 -235.28515625 232.2734375 C-236.36555176 232.29124268 -237.44594727 232.30904785 -238.55908203 232.32739258 C-240.29327393 232.35095825 -240.29327393 232.35095825 -242.0625 232.375 C-262.23137934 232.89949604 -278.29456329 236.29456329 -293 251 C-292.59512375 256.7957286 -290.78624774 261.44292392 -288.375 266.6875 C-288.01599609 267.47769531 -287.65699219 268.26789063 -287.28710938 269.08203125 C-282.37046206 279.73043142 -276.59809665 289.06182809 -269 298 C-268.09326758 299.09204754 -267.18704745 300.18452057 -266.28125 301.27734375 C-261.07026897 307.51138216 -255.67990787 313.49950309 -249.9375 319.25 C-249.11536011 320.07334839 -249.11536011 320.07334839 -248.27661133 320.91333008 C-243.85793278 325.41709716 -243.85793278 325.41709716 -238.0625 327.4375 C-227.70942959 327.11056093 -216.39657953 319.59771969 -208 314 C-205.375 314.25 -205.375 314.25 -203 315 C-199.8363715 321.32725701 -203.58151163 332.75326544 -204.45996094 339.58813477 C-206.31681676 354.06658593 -207.62019122 368.39704267 -208 383 C-206.87730713 382.85900879 -205.75461426 382.71801758 -204.59790039 382.57275391 C-200.34668111 382.03905217 -196.09535259 381.5062247 -191.84399414 380.97363281 C-190.020072 380.74502219 -188.19617776 380.51618886 -186.37231445 380.28710938 C-183.7183387 379.9538092 -181.06427579 379.62121567 -178.41015625 379.2890625 C-177.53530075 379.17950226 -176.66044525 379.06994202 -175.75907898 378.95706177 C-171.54080096 378.4314018 -167.32173279 377.91682346 -163.09887695 377.42919922 C-162.33042953 377.34044525 -161.56198212 377.25169128 -160.77024841 377.1602478 C-159.34532481 376.99689077 -157.92017869 376.83545709 -156.49476624 376.67642212 C-151.86462028 376.14723548 -147.3324119 375.38115531 -142.78515625 374.3671875 C-141 374 -141 374 -139 374 C-139 365.42 -139 356.84 -139 348 C-137.68 347.67 -136.36 347.34 -135 347 C-132.69 349.64 -130.38 352.28 -128 355 C-127.7834375 352.5559375 -127.7834375 352.5559375 -127.5625 350.0625 C-127.125 345.125 -127.125 345.125 -126 344 C-117.74252946 343.18055636 -109.90627342 344.6668031 -102 347 C-101.67 347.33 -101.34 347.66 -101 348 C-99.19722123 348.35788664 -97.38326096 348.65977156 -95.56640625 348.9375 C-93.8793457 349.19660156 -93.8793457 349.19660156 -92.15820312 349.4609375 C-90.97162109 349.63882812 -89.78503906 349.81671875 -88.5625 350 C-87.41072266 350.17789062 -86.25894531 350.35578125 -85.07226562 350.5390625 C-74.77411796 352.10452114 -64.79537936 353.16284439 -54.375 353.0625 C-53.01181641 353.05573242 -53.01181641 353.05573242 -51.62109375 353.04882812 C-49.41398911 353.03721178 -47.20703303 353.02088168 -45 353 C-45.66 351.68 -46.32 350.36 -47 349 C-47.66 349 -48.32 349 -49 349 C-52.62711512 341.25248211 -51.99828259 332.02305275 -49.4375 324 C-47.26972224 318.90684741 -44.89968216 315.63737316 -40 313 C-30.20266901 310.13112153 -19.53756005 310.62765265 -9.42504883 310.62939453 C-6.5438536 310.62497137 -3.66413363 310.58840215 -0.78320312 310.55078125 C1.05989065 310.5449206 2.90299161 310.54094618 4.74609375 310.5390625 C5.6013414 310.52469147 6.45658905 310.51032043 7.3377533 310.49551392 C11.39048867 310.52661734 13.50281872 310.69814707 17.04125977 312.84643555 C20.33893131 316.47210682 19.54458915 319.98629541 19.37109375 324.66015625 C18.87869351 329.09175839 17.71019474 332.90616596 16 337 C15.67 337.99 15.34 338.98 15 340 C14.34 340 13.68 340 13 340 C12.7525 340.721875 12.505 341.44375 12.25 342.1875 C10.89016326 345.24713266 9.17082246 347.4673738 7 350 C9.64 350 12.28 350 15 350 C15 350.99 15 351.98 15 353 C14.34 353 13.68 353 13 353 C12.74089844 353.51949219 12.48179687 354.03898437 12.21484375 354.57421875 C11.27352547 356.45382856 10.32723146 358.33094692 9.37890625 360.20703125 C8.77338962 361.40883005 8.1679221 362.61065358 7.5625 363.8125 C7.26279297 364.40353516 6.96308594 364.99457031 6.65429688 365.60351562 C-2.1807095 383.17770402 -5.71060456 403.36602581 0.31494141 422.46630859 C2.0873145 427.62423823 4.04544998 432.68848351 6.12695312 437.72900391 C6.49240234 438.61894043 6.85785156 439.50887695 7.234375 440.42578125 C7.57178711 441.23055908 7.90919922 442.03533691 8.25683594 442.86450195 C9 445 9 445 9 448 C-51.83656574 474.37102618 -120.47290701 477.52383685 -182.83032227 453.6105957 C-222.93198409 437.39335355 -260.67264926 411.78108722 -287 377 C-287.62285889 376.19175781 -287.62285889 376.19175781 -288.25830078 375.3671875 C-295.94508618 365.3684816 -302.65797194 354.89457306 -309 344 C-309.3619043 343.38753418 -309.72380859 342.77506836 -310.09667969 342.14404297 C-330.46735929 307.37743334 -339.25729267 266.46614453 -339.1875 226.5 C-339.18656342 225.80101593 -339.18562683 225.10203186 -339.18466187 224.38186646 C-339.10602258 197.14981856 -334.44450341 171.88185461 -326 146 C-325.78875488 145.34708984 -325.57750977 144.69417969 -325.35986328 144.02148438 C-312.20825387 103.87781279 -284.80130543 65.29377584 -251.65625 39.1015625 C-249.90059344 37.71252834 -248.17034457 36.29069582 -246.46875 34.8359375 C-231.86433624 22.38699444 -215.13919382 13.44715138 -198 5 C-197.27989746 4.64421875 -196.55979492 4.2884375 -195.81787109 3.921875 C-183.40385409 -2.10752565 -170.21008712 -6.10699836 -157 -10 C-156.2467041 -10.22316895 -155.4934082 -10.44633789 -154.71728516 -10.67626953 C-104.89147163 -24.9934756 -47.60974441 -19.43759787 0 0 Z " fill="#FCFBFB" transform="translate(350,25)"/>
<path d="M0 0 C0.495 1.98 0.495 1.98 1 4 C2.155 4.165 3.31 4.33 4.5 4.5 C21.88041522 8.40786065 40.34544935 21.1054999 50.13720703 35.69433594 C62.58479693 55.38623811 67.64235862 77.71454265 62.5 100.6875 C60.29252437 109.65396942 56.21325212 117.82915427 52 126 C51.34 126 50.68 126 50 126 C49.66355469 127.05380859 49.66355469 127.05380859 49.3203125 128.12890625 C47.71451194 131.62080984 45.47870146 134.16949798 42.875 136.9375 C42.14228882 137.72592285 42.14228882 137.72592285 41.39477539 138.53027344 C37.65476702 142.47768617 33.75363927 146.2836347 29 149 C28.34 149 27.68 149 27 149 C27 149.66 27 150.32 27 151 C4.06614379 162.82571809 -17.94985003 166.97050226 -43 159 C-43.79664063 158.76152344 -44.59328125 158.52304687 -45.4140625 158.27734375 C-49.31536282 156.97950082 -52.60526069 155.04546414 -56.0625 152.875 C-60.18568426 150.30039963 -63.16274221 149.21031556 -68 149 C-67.67 148.01 -67.34 147.02 -67 146 C-67.598125 145.731875 -68.19625 145.46375 -68.8125 145.1875 C-70.99847854 144.00082594 -72.41332594 142.90400887 -74 141 C-74 140.34 -74 139.68 -74 139 C-74.99 138.67 -75.98 138.34 -77 138 C-77 137.34 -77 136.68 -77 136 C-77.86625 135.6596875 -77.86625 135.6596875 -78.75 135.3125 C-84.22906386 132.11637941 -85.58209247 127.5801929 -87.15625 121.796875 C-88.05568916 118.81540074 -89.19830313 116.04369766 -90.4375 113.1875 C-91.29610653 111.12684433 -92.1502851 109.06433804 -93 107 C-93.39960938 106.0615625 -93.79921875 105.123125 -94.2109375 104.15625 C-99.77762058 89.15384171 -99.03066215 69.01481166 -92.86328125 54.28515625 C-91.65245201 51.80620302 -90.3429539 49.4094173 -89 47 C-88.11867796 45.21143468 -87.24360795 43.41977427 -86.375 41.625 C-84.85038558 38.48368035 -83.29000709 35.65350028 -81 33 C-80.34 33 -79.68 33 -79 33 C-79 32.01 -79 31.02 -79 30 C-79.66 29.67 -80.32 29.34 -81 29 C-80.0925 28.5875 -79.185 28.175 -78.25 27.75 C-75.19047606 26.10256403 -73.38114082 24.46618157 -71 22 C-70.34 22 -69.68 22 -69 22 C-68.67 21.01 -68.34 20.02 -68 19 C-53.26218143 6.89485655 -35.33399398 1.4036277 -16.5 1.75 C-15.34757812 1.75515625 -14.19515625 1.7603125 -13.0078125 1.765625 C-3.88319584 1.85070301 -3.88319584 1.85070301 0 3 C0 2.01 0 1.02 0 0 Z " fill="#D14657" transform="translate(444,345)"/>
<path d="M0 0 C4.44194301 0.02842844 8.66334818 0.29612742 13.02734375 1.1484375 C19.39689458 2.35236914 25.7890333 3.37794738 32.19140625 4.390625 C33.33416016 4.57238281 34.47691406 4.75414062 35.65429688 4.94140625 C38.43732973 5.38389683 41.22053251 5.8252847 44.00390625 6.265625 C44.00390625 6.925625 44.00390625 7.585625 44.00390625 8.265625 C44.85662109 8.24822266 44.85662109 8.24822266 45.7265625 8.23046875 C50.61061109 8.17339306 55.1889459 8.44605728 60.00390625 9.265625 C60.00390625 9.925625 60.00390625 10.585625 60.00390625 11.265625 C61.32390625 11.925625 62.64390625 12.585625 64.00390625 13.265625 C63.25390625 18.015625 63.25390625 18.015625 61.00390625 20.265625 C58.76171875 20.49609375 58.76171875 20.49609375 56.12890625 20.453125 C55.26523437 20.44667969 54.4015625 20.44023437 53.51171875 20.43359375 C51.21198399 20.27956167 49.21107136 19.90724276 47.00390625 19.265625 C47.5453125 20.32523437 47.5453125 20.32523437 48.09765625 21.40625 C53.5046231 33.36165447 54.45334638 47.9623256 49.8046875 60.41015625 C49.54042969 61.02246094 49.27617187 61.63476562 49.00390625 62.265625 C48.61203125 63.296875 48.22015625 64.328125 47.81640625 65.390625 C47.54828125 66.009375 47.28015625 66.628125 47.00390625 67.265625 C46.34390625 67.265625 45.68390625 67.265625 45.00390625 67.265625 C44.79765625 67.9875 44.59140625 68.709375 44.37890625 69.453125 C41.87483312 74.57509277 36.97254 77.6865981 32.00390625 80.265625 C26.36031648 81.19973641 20.7314887 81.17942266 15.69140625 78.265625 C11.55191233 75.23693867 7.96166007 71.45269525 5.00390625 67.265625 C5.00390625 66.605625 5.00390625 65.945625 5.00390625 65.265625 C4.34390625 65.265625 3.68390625 65.265625 3.00390625 65.265625 C2.34788881 63.74915679 1.70463985 62.22716325 1.06640625 60.703125 C0.70675781 59.85621094 0.34710938 59.00929688 -0.0234375 58.13671875 C-4.16196767 45.92057547 -2.94476881 31.99698889 2.00390625 20.265625 C3.52015594 17.42211991 5.14071308 14.90514866 7.00390625 12.265625 C5.70453125 12.389375 5.70453125 12.389375 4.37890625 12.515625 C0.24402618 12.20933759 -1.74252072 10.74453778 -4.99609375 8.265625 C-3.98717523 0.53058301 -3.98717523 0.53058301 0 0 Z " fill="#F9F7F7" transform="translate(248.99609375,256.734375)"/>
<path d="M0 0 C0 0.66 0 1.32 0 2 C0.99 2.33 1.98 2.66 3 3 C3.375 5.1875 3.375 5.1875 3 8 C-1.42072408 12.87413168 -5.63318314 14.02398173 -12 15 C-13.175625 15.20625 -14.35125 15.4125 -15.5625 15.625 C-16.366875 15.74875 -17.17125 15.8725 -18 16 C-17.41992188 16.60134766 -17.41992188 16.60134766 -16.828125 17.21484375 C-7.8882736 26.97344392 -5.50312925 38.38626428 -5.671875 51.3515625 C-6.32432798 58.60621826 -8.58586179 65.57157761 -12 72 C-12.66 72 -13.32 72 -14 72 C-14.165 72.680625 -14.33 73.36125 -14.5 74.0625 C-16.77408625 78.51591892 -19.6771737 81.47076127 -24 84 C-28.77379776 85.22636024 -32.88978582 85.14772407 -37.26953125 82.765625 C-42.59956931 78.48528851 -45.85688203 72.97936347 -49 67 C-49.41507812 66.32582031 -49.83015625 65.65164063 -50.2578125 64.95703125 C-54.73637975 56.86115968 -54.33441715 45.90633228 -52.12890625 37.08203125 C-50.97439293 33.2717144 -49.78262019 29.56524039 -48 26 C-49.093125 26.061875 -50.18625 26.12375 -51.3125 26.1875 C-55 26 -55 26 -56.9375 24.8125 C-58.43153143 22.26385815 -58.56710464 20.90641128 -58 18 C-52.1112024 12.42340557 -43.72661272 10.19012947 -35.75 9.5 C-31.66613623 8.95548483 -28.66125045 7.70948694 -24.98046875 5.9375 C-21.79845087 4.43121934 -19.29061435 3.88048173 -15.8125 3.9375 C-13.9253125 3.9684375 -13.9253125 3.9684375 -12 4 C-12 3.34 -12 2.68 -12 2 C-7.8794254 0.00214565 -4.54805635 -0.17835515 0 0 Z " fill="#F9F7F6" transform="translate(418,251)"/>
<path d="M0 0 C0.89460938 -0.00128906 1.78921875 -0.00257813 2.7109375 -0.00390625 C3.65195312 -0.00003906 4.59296875 0.00382812 5.5625 0.0078125 C6.97402344 0.00201172 6.97402344 0.00201172 8.4140625 -0.00390625 C9.75597656 -0.00197266 9.75597656 -0.00197266 11.125 0 C11.95128906 0.00112793 12.77757812 0.00225586 13.62890625 0.00341797 C15.5625 0.1328125 15.5625 0.1328125 16.5625 1.1328125 C16.65115208 4.0171507 16.67771296 6.87743408 16.66015625 9.76171875 C16.6587413 10.62594955 16.65732635 11.49018036 16.65586853 12.38059998 C16.65025239 15.15220542 16.63769719 17.9237313 16.625 20.6953125 C16.61998708 22.5696603 16.61542381 24.44400935 16.61132812 26.31835938 C16.60112681 30.92323271 16.58155467 35.5279331 16.5625 40.1328125 C22.8325 40.1328125 29.1025 40.1328125 35.5625 40.1328125 C35.5625 44.20223022 34.03432992 45.40136988 31.5 48.5703125 C30.59230626 49.72021599 29.68616355 50.87134486 28.78125 52.0234375 C28.2759375 52.66474609 27.770625 53.30605469 27.25 53.96679688 C23.94472375 58.20933317 20.72670143 62.51791541 17.5 66.8203125 C16.83282959 67.70581787 16.16565918 68.59132324 15.47827148 69.50366211 C14.85509033 70.33389893 14.23190918 71.16413574 13.58984375 72.01953125 C12.75054321 73.13654419 12.75054321 73.13654419 11.89428711 74.27612305 C10.51559247 76.09502317 10.51559247 76.09502317 9.5625 78.1328125 C8.9025 78.1328125 8.2425 78.1328125 7.5625 78.1328125 C7.2325 79.1228125 6.9025 80.1128125 6.5625 81.1328125 C3.18847032 79.72182973 1.54541369 78.16032974 -0.57421875 75.203125 C-1.14736816 74.41309082 -1.72051758 73.62305664 -2.31103516 72.80908203 C-2.90964355 71.96716309 -3.50825195 71.12524414 -4.125 70.2578125 C-5.37593382 68.5283794 -6.62723594 66.79921264 -7.87890625 65.0703125 C-8.48621582 64.22597656 -9.09352539 63.38164062 -9.71923828 62.51171875 C-11.96636464 59.40060775 -14.2573727 56.32620158 -16.5625 53.2578125 C-17.22507812 52.37351562 -17.88765625 51.48921875 -18.5703125 50.578125 C-19.89181514 48.84745418 -21.26785039 47.15780176 -22.6796875 45.5 C-24.4375 43.1328125 -24.4375 43.1328125 -24.4375 40.1328125 C-18.1675 40.1328125 -11.8975 40.1328125 -5.4375 40.1328125 C-5.44910156 37.32910156 -5.46070313 34.52539062 -5.47265625 31.63671875 C-5.48044633 28.93286248 -5.48652337 26.22900744 -5.49243164 23.52514648 C-5.49747244 21.6403752 -5.50430498 19.75560785 -5.51293945 17.87084961 C-5.52501617 15.16779614 -5.53073068 12.46479419 -5.53515625 9.76171875 C-5.54031754 8.91380264 -5.54547882 8.06588654 -5.55079651 7.192276 C-5.55099195 5.17210182 -5.49956211 3.15203316 -5.4375 1.1328125 C-3.84812444 -0.45656306 -2.19850154 0.00300107 0 0 Z " fill="#EBF7FD" transform="translate(421.4375,385.8671875)"/>
<path d="M0 0 C-0.33 1.32 -0.66 2.64 -1 4 C-1.66 4 -2.32 4 -3 4 C-3.26425781 4.5887793 -3.52851562 5.17755859 -3.80078125 5.78417969 C-5.04368944 8.08072584 -6.35006481 9.60833166 -8.1875 11.453125 C-8.80367187 12.071875 -9.41984375 12.690625 -10.0546875 13.328125 C-11.01761719 14.27945313 -11.01761719 14.27945313 -12 15.25 C-12.96292969 16.22453125 -12.96292969 16.22453125 -13.9453125 17.21875 C-14.56148437 17.83234375 -15.17765625 18.4459375 -15.8125 19.078125 C-16.37582031 19.63918945 -16.93914062 20.20025391 -17.51953125 20.77832031 C-19 22 -19 22 -21 22 C-21 22.66 -21 23.32 -21 24 C-22.32 24.33 -23.64 24.66 -25 25 C-25 23 -25 23 -22.9765625 20.8515625 C-21.98562841 19.89973504 -20.9932805 18.9493786 -20 18 C-18.77594821 16.78134943 -17.55477472 15.55980344 -16.3359375 14.3359375 C-12.55729167 10.55729167 -8.77864583 6.77864583 -5 3 C-4.47615723 2.43490723 -3.95231445 1.86981445 -3.41259766 1.28759766 C-2 0 -2 0 0 0 Z " fill="#E2D1D0" transform="translate(95,68)"/>
<path d="M0 0 C2.69242491 2.59877534 5.02373675 5.24562533 7.25 8.25 C12.38251983 14.92117674 17.85543691 20.53464807 25 25 C25 25.33 25 25.66 25 26 C22.69 26 20.38 26 18 26 C18.33 25.01 18.66 24.02 19 23 C18.401875 22.731875 17.80375 22.46375 17.1875 22.1875 C15.00152146 21.00082594 13.58667406 19.90400887 12 18 C12 17.34 12 16.68 12 16 C11.01 15.67 10.02 15.34 9 15 C9 14.34 9 13.68 9 13 C8.4225 12.773125 7.845 12.54625 7.25 12.3125 C4.32504627 10.60627699 2.86183486 8.82485289 1 6 C0.25 2.6875 0.25 2.6875 0 0 Z " fill="#116AB1" transform="translate(358,468)"/>
<path d="M0 0 C0.33 0.99 0.66 1.98 1 3 C-0.3125 5.1875 -0.3125 5.1875 -2 7 C-2.66 7 -3.32 7 -4 7 C-4 7.66 -4 8.32 -4 9 C-4.66 9 -5.32 9 -6 9 C-6.33 10.32 -6.66 11.64 -7 13 C-7.66 13 -8.32 13 -9 13 C-9 13.99 -9 14.98 -9 16 C-9.66 16 -10.32 16 -11 16 C-11.04125 16.556875 -11.0825 17.11375 -11.125 17.6875 C-12.46930374 21.24030274 -15.00974189 22.70958953 -18 25 C-16.46190803 20.24180904 -13.78789533 16.88755613 -10.6875 13.0625 C-10.21376953 12.46759766 -9.74003906 11.87269531 -9.25195312 11.25976562 C-6.21907229 7.4634784 -3.12120572 3.72384289 0 0 Z " fill="#CEB3B1" transform="translate(69,93)"/>
<path d="M0 0 C5.85951207 0.59126596 11.24128132 1.74244254 16.875 3.4375 C17.63296875 3.65470703 18.3909375 3.87191406 19.171875 4.09570312 C24.7475802 5.7475802 24.7475802 5.7475802 27 8 C21.67281152 7.64238781 17.07231846 6.85932959 12.12890625 4.83203125 C8.17520464 3.2868231 4.07542664 2.17753106 0 1 C0 0.67 0 0.34 0 0 Z " fill="#DDC9C7" transform="translate(312,14)"/>
<path d="M0 0 C4.21654356 1.48635116 7.62478605 3.61249159 11.3125 6.125 C12.38113281 6.84945312 13.44976562 7.57390625 14.55078125 8.3203125 C15.76314453 9.15175781 15.76314453 9.15175781 17 10 C16.01 10.33 15.02 10.66 14 11 C11.9140625 9.890625 11.9140625 9.890625 9.625 8.25 C7.08782909 6.46197743 4.63653687 4.79230678 1.9375 3.25 C1.298125 2.8375 0.65875 2.425 0 2 C0 1.34 0 0.68 0 0 Z " fill="#D6BCBA" transform="translate(381,41)"/>
<path d="M0 0 C3.41153748 0.61469144 5.51769156 1.89511054 8.25 4 C8.95640625 4.53625 9.6628125 5.0725 10.390625 5.625 C11.18726563 6.305625 11.18726563 6.305625 12 7 C12 7.33 12 7.66 12 8 C9.69 8 7.38 8 5 8 C5.33 7.01 5.66 6.02 6 5 C5.38125 4.731875 4.7625 4.46375 4.125 4.1875 C2 3 2 3 0 0 Z " fill="#045CA3" transform="translate(371,486)"/>
<path d="M0 0 C0 0.66 0 1.32 0 2 C-11.52164009 6.59225513 -11.52164009 6.59225513 -17 6 C-13.9666221 3.97774806 -11.38655511 3.00652476 -7.9375 1.875 C-6.87402344 1.52179687 -5.81054688 1.16859375 -4.71484375 0.8046875 C-2 0 -2 0 0 0 Z " fill="#E0C8C5" transform="translate(188,17)"/>
<path d="M0 0 C0.66 0 1.32 0 2 0 C6.59225513 10.37357631 6.59225513 10.37357631 6 16 C4.08614468 13.12921701 3.03567048 10.66588344 1.875 7.4375 C1.52179687 6.46683594 1.16859375 5.49617188 0.8046875 4.49609375 C0 2 0 2 0 0 Z " fill="#D1BAB9" transform="translate(22,324)"/>
<path d="M0 0 C0.66 0 1.32 0 2 0 C1.03644647 11.52164009 1.03644647 11.52164009 0 17 C-0.33 17 -0.66 17 -1 17 C-1.02721176 15.10424749 -1.04649136 13.20838021 -1.0625 11.3125 C-1.07410156 10.25675781 -1.08570313 9.20101563 -1.09765625 8.11328125 C-1.00865425 5.27589738 -0.64939838 2.7561081 0 0 Z " fill="#E4CCCB" transform="translate(498,283)"/>
<path d="M0 0 C0.66 0.33 1.32 0.66 2 1 C1.01 1.66 0.02 2.32 -1 3 C-0.67 2.01 -0.34 1.02 0 0 Z M-3 3 C-2.34 3.33 -1.68 3.66 -1 4 C-3.97 6.97 -6.94 9.94 -10 13 C-10.33 12.34 -10.66 11.68 -11 11 C-11.66 10.67 -12.32 10.34 -13 10 C-12.0925 9.5875 -11.185 9.175 -10.25 8.75 C-7.20334382 7.10949282 -5.28873194 5.55281639 -3 3 Z " fill="#A8647F" transform="translate(376,364)"/>
<path d="M0 0 C0.89203125 0.29648437 1.7840625 0.59296875 2.703125 0.8984375 C3.37859375 1.13820313 4.0540625 1.37796875 4.75 1.625 C2.24923002 3.24933191 1.16017471 3.69833427 -1.828125 3.1640625 C-2.70984375 2.86242187 -3.5915625 2.56078125 -4.5 2.25 C-5.39203125 1.95351563 -6.2840625 1.65703125 -7.203125 1.3515625 C-7.87859375 1.11179687 -8.5540625 0.87203125 -9.25 0.625 C-5.71808845 -1.66909208 -3.91045087 -1.33778582 0 0 Z " fill="#000912" transform="translate(372.25,496.375)"/>
<path d="M0 0 C-1.35513665 4.06540996 -3.30796918 4.97300269 -7 7 C-9.19921875 6.609375 -9.19921875 6.609375 -11 6 C-9.54550599 4.9944239 -8.08627557 3.99569565 -6.625 3 C-5.40683594 2.1646875 -5.40683594 2.1646875 -4.1640625 1.3125 C-2 0 -2 0 0 0 Z " fill="#DFCECD" transform="translate(131,42)"/>
<path d="M0 0 C0 3 0 3 -2.375 5.6875 C-5 8 -5 8 -7 8 C-7.33 9.32 -7.66 10.64 -8 12 C-8.25 9.73828125 -8.25 9.73828125 -8 7 C-6.25 4.98046875 -6.25 4.98046875 -4 3.1875 C-3.2575 2.58292969 -2.515 1.97835938 -1.75 1.35546875 C-1.1725 0.90816406 -0.595 0.46085937 0 0 Z " fill="#A3554B" transform="translate(64,269)"/>
<path d="M0 0 C0.66 0.33 1.32 0.66 2 1 C-0.19924069 4.35673579 -2.38269598 6.23772368 -6 8 C-6.66 7.67 -7.32 7.34 -8 7 C-5.36 4.69 -2.72 2.38 0 0 Z " fill="#D3BDBB" transform="translate(108,56)"/>
<path d="M0 0 C-1.45255699 3.82946843 -3.42895561 5.12050295 -7 7 C-3.86206897 0 -3.86206897 0 0 0 Z " fill="#DBC8C7" transform="translate(310,339)"/>
<path d="M0 0 C0.33 0.99 0.66 1.98 1 3 C-0.3125 5.1875 -0.3125 5.1875 -2 7 C-2.66 7 -3.32 7 -4 7 C-4.33 7.66 -4.66 8.32 -5 9 C-4.42647107 5.12867972 -2.51295648 2.91827204 0 0 Z " fill="#DAC2C0" transform="translate(69,93)"/>
<path d="M0 0 C3.77545388 1.09068668 6.47043472 1.9083091 9 5 C8.01 5.495 8.01 5.495 7 6 C4.5249829 4.88568235 2.32116581 3.41849022 0 2 C0 1.34 0 0.68 0 0 Z " fill="#D4BDBC" transform="translate(372,36)"/>
<path d="M0 0 C0.33 0 0.66 0 1 0 C1 3.3 1 6.6 1 10 C0.01 9.34 -0.98 8.68 -2 8 C-1.34 5.36 -0.68 2.72 0 0 Z " fill="#9C483E" transform="translate(222,371)"/>
<path d="M0 0 C3 1 3 1 4.25 2.8125 C5.11637742 5.33943414 4.88492145 6.52221994 4 9 C0 2.25 0 2.25 0 0 Z " fill="#D9C9C7" transform="translate(38,362)"/>
<path d="M0 0 C3.36720387 1.39332574 4.9859524 2.9789286 7 6 C3.63279613 4.60667426 2.0140476 3.0210714 0 0 Z " fill="#0054A1" transform="translate(366,484)"/>
<path d="M0 0 C1.65 0 3.3 0 5 0 C5.33 0.66 5.66 1.32 6 2 C3.03 1.505 3.03 1.505 0 1 C0 0.67 0 0.34 0 0 Z " fill="#000000" transform="translate(364,499)"/>
<path d="M0 0 C1.98 0.66 3.96 1.32 6 2 C5.01 2.33 4.02 2.66 3 3 C2.01 2.01 1.02 1.02 0 0 Z " fill="#000000" transform="translate(357,497)"/>
<path d="" fill="#003E77" transform="translate(0,0)"/>
<path d="" fill="#000000" transform="translate(0,0)"/>
<path d="" fill="#2A80C1" transform="translate(0,0)"/>
</svg>
